<svg xmlns="http://www.w3.org/2000/svg" version="1.1" xmlns:xlink="http://www.w3.org/1999/xlink" viewBox="0 0 200 200"><rect width="200" height="200" fill="url('#gradient')"></rect><defs><linearGradient id="gradient" gradientTransform="rotate(45 0.5 0.5)"><stop offset="0%" stop-color="#7494ae"></stop><stop offset="100%" stop-color="#dae0f0"></stop></linearGradient></defs><g><g fill="#2dfe8b" transform="matrix(2.9796910154492275,0,0,2.9796910154492275,-0.0571242942612713,122.05205650913209)" stroke="#aac86a" stroke-width="0.95"><path d="M8.80-14.22L12.23-14.22L12.23-4.91Q12.23-3.33 11.55-2.17Q10.88-1.02 9.62-0.41Q8.36 0.20 6.64 0.20L6.64 0.20Q4.04 0.20 2.55-1.15Q1.05-2.50 1.03-4.84L1.03-4.84L1.03-14.22L4.47-14.22L4.47-4.78Q4.53-2.44 6.64-2.44L6.64-2.44Q7.71-2.44 8.25-3.03Q8.80-3.61 8.80-4.93L8.80-4.93L8.80-14.22ZM14.15-10.57L17.24-10.57L17.34-9.33Q18.44-10.76 20.36-10.76L20.36-10.76Q22.01-10.76 22.83-9.78Q23.64-8.79 23.67-6.81L23.67-6.81L23.67 0L20.37 0L20.37-6.67Q20.37-7.47 20.05-7.85Q19.73-8.22 18.88-8.22L18.88-8.22Q17.91-8.22 17.44-7.46L17.44-7.46L17.44 0L14.15 0L14.15-10.57ZM28.96-10.57L28.96 0L25.66 0L25.66-10.57L28.96-10.57ZM25.47-13.29L25.47-13.29Q25.47-13.99 25.98-14.44Q26.48-14.89 27.29-14.89Q28.11-14.89 28.61-14.44Q29.12-13.99 29.12-13.29Q29.12-12.59 28.61-12.14Q28.11-11.69 27.29-11.69Q26.48-11.69 25.98-12.14Q25.47-12.59 25.47-13.29ZM43.03-14.22L43.03 0L39.62 0L39.62-5.94L34.57-5.94L34.57 0L31.14 0L31.14-14.22L34.57-14.22L34.57-8.57L39.62-8.57L39.62-14.22L43.03-14.22ZM51.44 0L51.34-1.14Q50.29 0.20 48.52 0.20L48.52 0.20Q46.78 0.20 45.88-0.82Q44.99-1.83 44.99-3.72L44.99-3.72L44.99-10.57L48.28-10.57L48.28-3.70Q48.28-2.34 49.60-2.34L49.60-2.34Q50.73-2.34 51.21-3.15L51.21-3.15L51.21-10.57L54.52-10.57L54.52 0L51.44 0ZM66.13-5.36L66.13-5.20Q66.13-2.60 65.06-1.20Q63.98 0.20 62.03 0.20L62.03 0.20Q60.42 0.20 59.43-1.08L59.43-1.08L59.30 0L56.35 0L56.35-15L59.64-15L59.64-9.72Q60.56-10.76 62.01-10.76L62.01-10.76Q63.98-10.76 65.06-9.35Q66.13-7.93 66.13-5.36L66.13-5.36ZM62.83-5.40L62.83-5.40Q62.83-6.92 62.43-7.57Q62.02-8.22 61.18-8.22L61.18-8.22Q60.07-8.22 59.64-7.37L59.64-7.37L59.64-3.17Q60.06-2.33 61.20-2.33L61.20-2.33Q62.36-2.33 62.68-3.47L62.68-3.47Q62.83-4.02 62.83-5.40Z"></path></g></g></svg>